<svg xmlns="http://www.w3.org/2000/svg" xmlns:xlink="http://www.w3.org/1999/xlink" width="1520px" height="900px" viewBox="0 0 1520 900" version="1.1">
	<g id="Web-—-Ozon-ID-—-Auth--Copy-5" stroke="none" stroke-width="1" fill="none" fill-rule="evenodd">
		<rect fill="#FFE14D" x="0" y="0" width="1520" height="900" />
		<path d="M1714.00692,-278 C1149.01675,-278 691,49.0509375 691,452.5 C691,855.935227 1149.01675,1183 1714.00692,1183 C2278.98325,1183 2737,855.935227 2737,452.5 C2737,49.0509375 2278.98325,-278 1714.00692,-278 Z M1714.00692,62.9553409 C2104.33332,62.9553409 2395.98847,268.615994 2395.98847,452.5 C2395.98847,636.384006 2104.33332,842.044659 1714.00692,842.044659 C1323.66668,842.044659 1032.01153,636.384006 1032.01153,452.5 C1032.01153,268.615994 1323.66668,62.9553409 1714.00692,62.9553409 L1714.00692,62.9553409 Z" id="logo" fill="#4DA6FF" fill-rule="nonzero" opacity="0.5" />
	</g>
</svg>
